<svg id="Camada_1" data-name="Camada 1" xmlns="http://www.w3.org/2000/svg" viewBox="0 0 304.85 304.85">
  <g>
    <path d="M280.34,41.33H247.67V19.55a10.89,10.89,0,0,0-21.77,0V41.33H95.25V19.55a10.89,10.89,0,0,0-21.78,0V41.33H40.81A32.66,32.66,0,0,0,8.15,74V280.86a32.66,32.66,0,0,0,32.66,32.66H280.34A32.66,32.66,0,0,0,313,280.86V74A32.66,32.66,0,0,0,280.34,41.33Zm10.88,239.53a10.88,10.88,0,0,1-10.88,10.88H40.81a10.89,10.89,0,0,1-10.89-10.88V139.32h261.3Zm0-163.32H29.92V74A10.9,10.9,0,0,1,40.81,63.1H73.47V84.88a10.89,10.89,0,0,0,21.78,0V63.1H225.9V84.88a10.89,10.89,0,1,0,21.77,0V63.1h32.67A10.9,10.9,0,0,1,291.23,74v43.55Z" transform="translate(-8.15 -8.67)" style="fill: #c6ff00"/>
    <path d="M233.33,164.28a10.9,10.9,0,0,0-15.13,0l-79.4,79.41-35.86-35.86a10.89,10.89,0,0,0-15.39,15.4l43.55,43.55a10.89,10.89,0,0,0,15.4,0l87.1-87.1A10.9,10.9,0,0,0,233.33,164.28Z" transform="translate(-8.15 -8.67)" style="fill: #c6ff00"/>
  </g>
</svg>
