<svg id="Camada_1" data-name="Camada 1" xmlns="http://www.w3.org/2000/svg" viewBox="0 0 284 284">
  <path d="M158.67,19c-78.3,0-142,63.7-142,142s63.7,142,142,142,142-63.7,142-142S237,19,158.67,19Zm0,263.27A121.27,121.27,0,1,1,279.94,161,121.41,121.41,0,0,1,158.67,282.27Z" transform="translate(-16.67 -19)" style="fill: #c6ff00"/>
  <path d="M207,161H162.12V98.81a10.37,10.37,0,0,0-20.73,0v72.55a10.37,10.37,0,0,0,10.37,10.37H207A10.37,10.37,0,0,0,207,161Z" transform="translate(-16.67 -19)" style="fill: #c6ff00"/>
</svg>
