<svg id="Camada_1" data-name="Camada 1" xmlns="http://www.w3.org/2000/svg" xmlns:xlink="http://www.w3.org/1999/xlink" viewBox="0 0 860 378">
  <defs>
    <clipPath id="clip-path">
      <rect x="-18.95" y="92.76" width="1757.95" height="627.24" style="fill: none"/>
    </clipPath>
  </defs>
  <g style="clip-path: url(#clip-path)">
    <g>
      <path d="M73.62,120.94H13.39V274H53.48V207.55c0-10.41-.76-24.91-2.39-43.76h1l27.06,87A31.86,31.86,0,0,0,91.68,267.5,37.51,37.51,0,0,0,112.83,274H123Zm78.38,0L108.85,231.66,123,273.93l29-78.5Z" style="fill: #0063e5"/>
      <path d="M204.15,120.94H162.56V274h41.59Z" style="fill: #0063e5"/>
      <path d="M394.18,256.33H346.74l5.08,17.41h49.55Z" style="fill: #fff"/>
      <path d="M378.79,211.15,346,120.08H285.56L271,161.16c-.73,2.13-1.56,4.29-2.38,6.61l-1.69,4.76-13.74,38.76h-4.1a25.58,25.58,0,0,0-13.82,4,21.89,21.89,0,0,0-8.67,10.53l-7.44,19.37h22L230.9,273.74h49.73l8.48-28.68H391Zm-80.28,0,17.54-65.85,18.15,65.85Z" style="fill: #fff"/>
      <path d="M298.51,211.15l17.54-65.85c-.68,3.57-2.06,9.43-4.07,17.6S305.46,187.12,298.51,211.15Z" style="fill: #fff"/>
      <path d="M334.2,211.15,326.94,186c-1.65-5.53-3.7-12.78-6.12-21.67s-4-15.2-4.77-19Z" style="fill: #fff"/>
      <path d="M241.09,245.06l-8.87,25,56.92-25Z" style="fill: #fff"/>
      <path d="M490.83,231.19l24,42.24H566l-47.9-77.06Z" style="fill: #fff"/>
      <path d="M566.83,120.38,486.67,223.91l-18.36,23.78v25.85H422.74V120.38h45.51v66.44l36.45-49.41a40.89,40.89,0,0,1,15.19-12.5,45.7,45.7,0,0,1,19.91-4.53Z" style="fill: #fff"/>
      <path d="M675,177.46v33.91H561.41L568.82,192a21.77,21.77,0,0,1,7.85-10,25.34,25.34,0,0,1,12.56-4.52h2.11Z" style="fill: #fff"/>
      <path d="M688.76,120.94v33.21H634.68v11.38H589.23V120.94Z" style="fill: #fff"/>
      <path d="M688.76,240.27V274h-99.5V211.34l45.27,0v28.9Z" style="fill: #fff"/>
      <path d="M589.26,242.65l45.27-31.28-45.27,0Z" style="fill: #fff"/>
      <path d="M854.37,274.18H803l-24.7-38.62h47Z" style="fill: #fff"/>
      <path d="M768.09,223v28.13a21.49,21.49,0,0,1-7.21,15.93,26.31,26.31,0,0,1-17.55,6.66H722.79V223.19Z" style="fill: #fff"/>
      <path d="M828.5,133.39a52.07,52.07,0,0,0-17.93-8.94,106,106,0,0,0-29.75-3.71H722.67v68.6a23.35,23.35,0,0,0-12,3.89,20,20,0,0,0-7.55,9.34l-7.92,20.65h28.49L768,223h15.51c16-.36,29-3.7,38.93-10a45.67,45.67,0,0,0,5.33-3.88,44.64,44.64,0,0,0,14.6-23.42,63.07,63.07,0,0,0,2-16.22Q844.42,146.07,828.5,133.39Zm-51.08,55.92h-9.33V154.15h11.69c12.55,0,18.79,5.15,18.79,15.48a17.44,17.44,0,0,1-1.37,7.79,18.81,18.81,0,0,1-4.75,6.63c-.34.25-.64.53-1,.77A23.3,23.3,0,0,1,777.42,189.31Z" style="fill: #fff"/>
    </g>
  </g>
  <path d="M46.5,9.06q42.57,0,42.57,40.56T46.5,90.18H11.37V9.06ZM37.42,70.72H46q16.39,0,16.39-17.57V46.08q0-17.57-16.39-17.57H37.42Zm64.89-50.11V4.69h23.47V20.61Zm0,69.57V27.92h23.47V90.18ZM210.8,16.25q0,7.18-3.66,11.08t-10.73,5.78a18.74,18.74,0,0,1,5.31,6.13,14.28,14.28,0,0,1,2,7.31q0,9.9-7.55,15T177.54,66.6h-9q-7.43,0-7.43,3.42a3.14,3.14,0,0,0,1.65,2.71q1.65.94,5.78.94h21.23q10.37,0,15.68,5.43t5.31,14.5a19,19,0,0,1-3.54,11.55,21.86,21.86,0,0,1-9.55,7.32,34.05,34.05,0,0,1-13.09,2.47H150a16.24,16.24,0,0,1-7.9-2,15.42,15.42,0,0,1-5.66-5.54,14.3,14.3,0,0,1-2.12-7.67,13.58,13.58,0,0,1,2.83-8.37,18,18,0,0,1,7.07-5.54A15.5,15.5,0,0,1,139.69,81,11.94,11.94,0,0,1,138,74.85a11.76,11.76,0,0,1,3.42-8.25A16.76,16.76,0,0,1,150,61.53a26.62,26.62,0,0,1-7.31-6.72,14,14,0,0,1-2.71-8.14q0-10.85,8.72-15.45T172,26.51a59.84,59.84,0,0,1,10.26.7q5.78-3.64,7.43-6.6c1.18-2,1.77-3.5,1.77-4.36Zm-39,22.52a9.83,9.83,0,0,0-6.37,2,7,7,0,0,0-2.48,5.78,7.52,7.52,0,0,0,2.24,5.9,12.54,12.54,0,0,0,13.21,0,7.15,7.15,0,0,0,2.48-5.9,6.82,6.82,0,0,0-2.48-5.78A9.91,9.91,0,0,0,171.77,38.77Zm-9.08,51.41a7,7,0,0,0-4.48,1.41,5.53,5.53,0,0,0-1.65,4.25,5.67,5.67,0,0,0,1.76,4.36,6.17,6.17,0,0,0,4.37,1.65h18.39a6.15,6.15,0,0,0,4.36-1.65A5.15,5.15,0,0,0,187.33,96a5.32,5.32,0,0,0-1.77-4.25,6.6,6.6,0,0,0-4.48-1.53Zm57.54-69.57V4.69h23.46V20.61Zm0,69.57V27.92h23.46V90.18Zm79.94-62.26V43.84H287v23.7q0,4.24,1.41,6.25c.95,1.26,2.67,1.89,5.19,1.89h6.6V89.47A40.63,40.63,0,0,1,292.86,91a61,61,0,0,1-7.78.58q-10.38,0-16-3.77T263.5,75V43.84h-8.72V27.92h9.67l5.07-18.86H287V27.92Zm41.67-1.41q14.27,0,23.22,4.83t9,15.45V71.08a5.48,5.48,0,0,0,.94,3.3,3.28,3.28,0,0,0,2.83,1.3h4.25V89.24a14.33,14.33,0,0,1-1.89.82,39.4,39.4,0,0,1-10.38,1.53,27.76,27.76,0,0,1-11.32-2,12,12,0,0,1-6-5.78,37.9,37.9,0,0,1-10,5.66,36.1,36.1,0,0,1-13,2.12q-21.94,0-21.94-17.45,0-9.08,4.84-13.79t14.15-6.61A132.94,132.94,0,0,1,350.56,52V48.91A6.41,6.41,0,0,0,348,43.37a10.4,10.4,0,0,0-6.49-1.89,14.5,14.5,0,0,0-6.36,1.3,4.32,4.32,0,0,0-2.6,4.13v.47H309.41a8.84,8.84,0,0,1-.12-1.65q0-8.85,8.37-14T341.84,26.51Zm8.72,36.55q-10,0-14.85,2.24c-3.15,1.42-4.72,3.34-4.72,5.78q0,5.9,8,5.89a13.3,13.3,0,0,0,8-2.47,7.3,7.3,0,0,0,3.54-6.13Zm40,27.12V4.69H414V90.18Z" style="fill: #fff"/>
  <path d="M630.61,362l-8.22-38.66H622L613.81,362H591.39l-14.86-63.48h21.23l7.29,36h.37l7.19-36h20.12l7.66,36h.37l6.83-36h20.3L653,362Zm66-49.83q13.38,0,20.4,6.28t7.1,19.19v3.14H687.6c0,3.51.77,6.15,2.31,7.94s4.09,2.67,7.47,2.67c3.08,0,5.32-.64,6.74-1.94a6.5,6.5,0,0,0,2.21-5.16h17.81q0,8.85-6.73,13.84t-19.66,5q-13.56,0-21-6.27t-7.47-19.2q0-12.54,7.29-19T696.64,312.16Zm.74,11.72q-8.67,0-9.69,8.22H705.6a8.11,8.11,0,0,0-2.22-6A7.89,7.89,0,0,0,697.38,323.88Zm60.81-11.72q13.38,0,20.4,6.28t7.1,19.19v3.14H749.15c0,3.51.77,6.15,2.31,7.94s4.09,2.67,7.47,2.67c3.08,0,5.32-.64,6.74-1.94a6.5,6.5,0,0,0,2.21-5.16h17.81q0,8.85-6.74,13.84t-19.65,5q-13.56,0-21-6.27t-7.47-19.2q0-12.54,7.29-19T758.19,312.16Zm.74,11.72q-8.67,0-9.69,8.22h17.91a8.11,8.11,0,0,0-2.22-6A7.89,7.89,0,0,0,758.93,323.88Zm69.58-10.61h21.41l-18,19.66L850.38,362H829.52l-10.24-16.7-6.37,6.19V362H794.55V295h18.36v36.91Z" style="fill: #fff"/>
  <text transform="translate(730.98 88.72)" style="font-size: 111px;fill: #0063e5;stroke: #0063e5;stroke-miterlimit: 10;stroke-width: 2px;font-family: MyriadPro-Regular, Myriad Pro">#2</text>
</svg>
