<svg id="Camada_1" data-name="Camada 1" xmlns="http://www.w3.org/2000/svg" viewBox="0 0 2497.13 711.49">
  <defs>
    <style>
      .cls-1 {
        fill: #b5b5b5;
      }

      .cls-1, .cls-2, .cls-3, .cls-4, .cls-5 {
        fill-rule: evenodd;
      }

      .cls-2 {
        fill: #fff;
      }

      .cls-3 {
        fill: #a6a385;
      }

      .cls-4 {
        fill: #499d4a;
      }

      .cls-5 {
        fill: #58aa50;
      }
    </style>
  </defs>
  <g>
    <path class="cls-1" d="M2327.7,295.28c-2.25.45-4.5,5.41-4.5,8.11-.45,18-.9,65.79-.9,98.23,0,.91,1.35,2.71,2.7,2.71,6.76.45,23,.9,36.95.9,19.37,0,30.64-2.7,37-5.4,16.22-8.12,23.88-25.69,23.88-45.07,0-43.7-30.64-60.38-76.15-60.38a72.35,72.35,0,0,0-18.93.9ZM2444,496.7c0-44.61-32.9-69.39-92.37-69.39-2.71,0-21.63-.45-26.14.44-1.35.46-3.15,1.36-3.15,2.71,0,32-.45,82.92.9,102.74.9,8.56,7.21,20.73,14.87,24.33,8.11,4.51,26.58,5.41,39.2,5.41,35.6,0,66.69-19.83,66.69-66.24ZM2235.79,270.5c4.5,0,18,1.35,52.71,1.35,32.9,0,59-.9,91-.9,39.2,0,93.27,14,93.27,72.55,0,28.83-20.28,51.82-46.86,63.08-1.35.45-1.35,1.35,0,1.8,37.85,9.47,71.2,32.9,71.2,77.05,0,43.26-27,70.75-66.24,87.87-23.88,10.36-53.62,14-83.81,14-23,0-84.71-2.7-119-1.8-3.6-1.36,3.16-17.58,6.31-20.28,8.11-.45,14.42-.9,23-3.61,12.17-3.15,13.52-6.75,15.32-25.23.9-15.77.9-71.65.9-111.3,0-54.52.46-91.47,0-109.49-.45-14-5.4-18.47-15.31-21.18-7.67-1.35-20.28-3.15-30.65-4.5-2.26-2.26,5.41-17.58,8.12-19.38Zm-260,280.27c10.82,8.56,32,12.16,50.92,12.16,24.33,0,48.66-4.5,72.09-25.68,23.89-21.62,40.56-55,40.56-108.14,0-50.92-19.38-92.38-59-116.7-22.53-14-51.37-19.83-84.71-19.83-9.92,0-19.38.45-25.23,3.15-1.36.91-4.51,5-4.51,7.21-.9,9-.9,78.4-.9,119,0,41.9,0,100.48.9,107.24,0,6.76,3.15,17.13,9.91,21.63ZM1873.5,270.5c8.57,0,41.46,1.35,57.23,1.35,28.39,0,48.66-1.35,102.28-1.35,45.06,0,82.91,12.17,110,35.15,32.89,28.38,50,67.59,50,115.35,0,68-31.1,107.24-62.19,129.77-31.08,23-71.64,36.5-129.32,36.5-30.64,0-83.35-.9-127.07-1.36H1874c-2.25-4,3.61-19.82,7.21-20.27,11.72-1.35,14.88-1.81,20.73-4,9.46-3.61,11.27-8.57,12.62-25.24,1.35-31.09.9-68.49.9-110.85,0-30.18.45-89.21-.45-108.14-1.35-15.77-8.11-19.82-21.63-22.53-6.76-1.35-15.77-3.15-28.38-4.5-1.81-3.16,6.3-17.13,8.55-19.83Z" transform="translate(0 -1.05)"/>
    <path class="cls-2" d="M1328.29,568.34c-11.27-1.35-19.38-3.15-29.29-7.66-1.35-.9-3.61-5.4-3.61-7.21-.9-15.77-.9-60.83-.9-91,0-24.34-4-45.52-14.42-60.38-12.16-17.13-29.73-27-52.27-27-19.82,0-46.41,13.52-68.49,32.44-.45.45-4,3.61-3.6-1.35,0-5,.9-14.87,1.35-21.63.45-6.31-3.15-9.46-3.15-9.46-14.42,7.21-55,16.67-69.85,18-10.81,2.26-13.51,12.62-2.24,16.22h.45c12.15,3.61,20.27,7.66,26.57,11.72,4.51,3.61,4.06,8.56,4.06,12.62.45,33.79.45,85.61-.9,114-.45,11.26-3.6,15.32-11.72,17.12l.91-.45c-6.31,1.35-11.27,2.7-18.93,3.6-2.7,2.71-2.7,17.13,0,20.28,5,0,31.09-1.35,52.73-1.35,29.73,0,45,1.35,52.71,1.35,3.15-3.6,4.06-17.12,2.26-20.28-8.57-.45-14.88-1.35-20.73-3.15-8.11-1.81-10.37-5.86-10.82-15.32-.9-23.89-.9-74.35-.9-108.59,0-9.47,2.7-14,5.4-16.68,10.37-9,27-15.32,41.91-15.32,14.42,0,23.88,4.51,31.09,10.37,9.92,8.11,13.07,19.82,14.42,28.38,2.25,19.38,1.35,57.68,1.35,91,0,18-1.35,22.53-8.1,24.78-3.16,1.36-11.27,3.16-20.73,4.06-3.16,3.16-2.25,17.13,0,20.28,13.06,0,28.39-1.35,50.91-1.35,27.94,0,46,1.35,53.18,1.35,2.24-2.7,3.15-15.77,1.35-19.38ZM1453.1,396.22c-23.88,0-38.75,18.47-38.75,47.31,0,29.29,13.07,63.08,50,63.08,6.3,0,18-2.7,23.42-9,8.57-8.11,14.43-24.33,14.43-41.46,0-37.39-18.48-59.92-49.12-59.92ZM1450,595.38a38.7,38.7,0,0,0-19.38,5c-18.92,12.16-27.48,23.87-27.48,37.85,0,13.06,5,23.42,15.77,32.44,13.06,11.26,31.09,16.67,54.06,16.67,46,0,66.25-24.78,66.25-49.11,0-17.13-8.57-28.39-26.14-34.7-12.61-5.41-35.59-8.11-63.08-8.11Zm3.15,117.16c-27.48,0-47.31-5.86-64.43-18.93C1372,681,1364.79,662.07,1364.79,649a34.52,34.52,0,0,1,9-22.53c5-5.41,15.77-15.77,41.45-33.34.9-.45,1.35-.9,1.35-1.81a3,3,0,0,0-1.8-2.25c-21.18-8.11-27.49-21.18-29.29-28.39v-.9c-.45-2.7-1.35-5.4,2.71-8.11,3.15-2.25,7.66-5,12.61-8.1,7.66-4.52,15.77-9.47,20.73-13.53a3.31,3.31,0,0,0,.9-2.7,3,3,0,0,0-1.81-2.25c-31.53-10.37-47.3-33.8-47.3-69,0-23,10.36-43.7,28.83-56.77,12.62-9.91,44.16-22.08,64.89-22.08h1.35c21.18.45,32.89,5,49.56,10.82,9,3.15,17.58,4.5,29.3,4.5,17.57,0,25.23-5.41,31.53-11.71.46.9,1.36,3.15,1.81,9a34,34,0,0,1-5.86,20.73c-3.6,4.95-11.71,8.56-19.82,8.56h-2.26a98.91,98.91,0,0,1-11.72-1.81l-1.79.91c-.45.9,0,1.8.44,3.15l.46.9c.9,4.06,2.7,16.22,2.7,19.38,0,36.95-14.87,53.16-30.64,65.33a103.74,103.74,0,0,1-52.72,20.28,56.62,56.62,0,0,0-6.31.45c-2.25,0-5.4.45-5.86.45h-.45c-3.6.9-12.61,5.41-12.61,13.06,0,6.76,4,14.88,23.43,16.23,4.05.45,8.1.45,12.61.9,25.69,1.8,57.68,4.06,72.55,9,20.73,7.66,33.79,26.14,33.79,48.22,0,33.34-23.87,64.43-63.53,83.8-19.37,8.57-38.75,13.08-59.93,13.08Zm256.84-314.07c-9.46,0-18,2.25-24.33,6.76C1668,416,1659,437.67,1659,469.21c0,59,29.74,100.49,72.1,100.49,12.62,0,22.53-3.61,31.09-10.82,13.06-10.82,19.83-32.44,19.83-62.63,0-58.58-29.3-97.78-72.1-97.78Zm8.11,192.85c-76.6,0-104.09-56.32-104.09-109,0-36.95,14.87-65.34,44.61-85.61,21.18-13.07,46.42-20.28,68.94-20.28,58.58,0,99.58,41.91,99.58,102.29,0,41-16.22,73.44-47.31,93.27-14.87,9.91-40.55,19.37-61.73,19.37Zm-803-192.85c-9.46,0-18,2.25-24.33,6.76-17.57,10.81-26.59,32.44-26.59,64,0,59,29.74,100.49,72.1,100.49,12.62,0,22.53-3.61,31.09-10.82,13.06-10.82,19.83-32.44,19.83-62.63,0-58.58-28.84-97.78-72.1-97.78Zm8.11,192.85c-76.6,0-104.08-56.32-104.08-109,0-36.95,14.86-65.34,44.6-85.61,21.18-13.07,46.42-20.28,68.95-20.28,58.57,0,99.58,41.91,99.58,102.29,0,41-16.22,73.44-47.32,93.27-14.42,9.91-40.1,19.37-61.73,19.37Zm-515-4.5c-.9-1.35-1.8-5.41-1.35-10.36a15.24,15.24,0,0,1,1.35-6.76A166.21,166.21,0,0,0,428,565.64c9-2.26,12.62-7.21,13.06-18.47,1.36-27,1.36-78.41.91-114v-.91c0-4.05,0-9-5-12.62a101.73,101.73,0,0,0-27-11.71c-4.06-1.35-6.76-3.6-6.31-6.3,0-2.71,2.7-5.86,8.56-6.77,14.87-1.35,53.61-10.81,68.94-17.57.9.9,2.25,3.61,2.25,7.21l-.45,4.95c-.45,5-.9,10.82-.9,16.68a3.48,3.48,0,0,0,3.6,3.15,6.39,6.39,0,0,0,2.71-.9c28.84-22.53,55-30.64,68.49-30.64,22.08,0,39.2,10.37,52.27,32a3.39,3.39,0,0,0,3.15,1.81,3.24,3.24,0,0,0,2.71-1.35c26.58-20.28,53.17-32.45,70.74-32.45,41.9,0,66.69,31.09,66.69,83.81,0,14.87,0,34.25-.45,51.83,0,15.76-.45,30.18-.45,40.55,0,2.24,3.15,9.45,8.1,10.81,6.31,3.15,14.88,4.5,26.14,6.31h.45c.9,3.15-.9,14.86-2.7,17.12a110.49,110.49,0,0,1-11.26-.45q-17.12-.88-34.25-.9c-27.94,0-42.36.45-56.33,1.35-.89-3.6-1.35-14.42,0-17.12A139.46,139.46,0,0,0,698.81,567c9-2.7,11.26-6.76,11.72-18.47,0-8.56,1.79-81.56-.91-99.13-2.7-18-16.22-39.2-46-39.2-11.27,0-28.84,4.5-46,17.56a8.07,8.07,0,0,0-1.81,4.51v.46c1.81,9.45,1.81,20.27,1.81,36.94V499c0,20.28-.45,39.21,0,53.62,0,9.92,5.86,12.17,10.82,14,2.7.45,4.5.9,6.75,1.35,4.06.9,8.11,1.81,14.42,3.16.91,1.8.91,7.66-.45,12.61a8.59,8.59,0,0,1-1.8,4.51c-15.32-.45-31.09-.9-54.07-.9-6.76,0-18.48.45-28.39.45-8.11,0-15.77.45-20.27.45-.46-.9-1.36-4-1.36-9,0-4.06.9-7.21,1.81-8.11a30.39,30.39,0,0,1,6.3-.9c5.41-.91,9.92-1.81,14.42-2.71,7.67-2.25,10.37-6.31,10.81-16.22,1.36-22.53,2.71-87-.44-103.19-5.41-26.13-20.28-39.2-44.16-39.2-14,0-31.55,6.76-46,17.58-2.26,1.8-4.06,6.3-4.06,10.36v26.59c0,32.44,0,73,.45,90.57.45,5.4,2.25,11.71,12.62,14a95.33,95.33,0,0,0,10.36,1.81l8.11,1.35c.91,2.7.45,13.52-1.35,17.12-4.51,0-9.91-.45-16.22-.45-9.46-.45-21.63-.9-35.15-.9-15.77,0-27,.45-36.05.9a109.17,109.17,0,0,0-16.67-.9Z" transform="translate(0 -1.05)"/>
    <path class="cls-2" d="M171.16,695l-18.47-6.31s2.25-94.17-31.55-100.93c-22.52-26.14,3.62-1108.46,84.72-3.61,0,0-27.94,14-32.9,37.85-5.41,23.44-1.8,73-1.8,73Z" transform="translate(0 -1.05)"/>
    <path class="cls-3" d="M171.16,695l-18.47-6.31s2.25-94.17-31.55-100.93c-22.52-26.14,3.62-1108.46,84.72-3.61,0,0-27.94,14-32.9,37.85-5.41,23.44-1.8,73-1.8,73Z" transform="translate(0 -1.05)"/>
    <path class="cls-2" d="M181.07,603.94S342.84,497.6,305,276.35C268.49,115.5,182.43,62.78,173,42.5,162.6,28.08,152.69,2.85,152.69,2.85l6.76,447.43c0,.46-14,137,21.63,153.67" transform="translate(0 -1.05)"/>
    <path class="cls-4" d="M181.07,603.94S342.84,497.6,305,276.35C268.49,115.5,182.43,62.78,173,42.5,162.6,28.08,152.69,2.85,152.69,2.85l6.76,447.43c0,.46-14,137,21.63,153.67" transform="translate(0 -1.05)"/>
    <path class="cls-2" d="M143.23,609.8S-8.63,506.16.39,323.67C9,141.18,116.19,51.51,136.91,35.29c13.52-14.42,14-19.83,14.88-34.24,9.46,20.27,7.66,303.25,9,336.59C164.85,466.06,153.59,585.47,143.23,609.8Z" transform="translate(0 -1.05)"/>
    <path class="cls-5" d="M143.23,609.8S-8.63,506.16.39,323.67C9,141.18,116.19,51.51,136.91,35.29c13.52-14.42,14-19.83,14.88-34.24,9.46,20.27,7.66,303.25,9,336.59C164.85,466.06,153.59,585.47,143.23,609.8Z" transform="translate(0 -1.05)"/>
  </g>
</svg>
