<svg id="Camada_1" data-name="Camada 1" xmlns="http://www.w3.org/2000/svg" viewBox="0 0 308.02 247.71">
  <g>
    <path d="M300.27,241.38H23.71A15.74,15.74,0,0,1,8,225.66V77A15.74,15.74,0,0,1,23.71,61.23H300.27A15.74,15.74,0,0,1,316,77V225.66A15.74,15.74,0,0,1,300.27,241.38ZM23.71,73.93a3,3,0,0,0-3,3V225.66a3,3,0,0,0,3,3H300.27a3,3,0,0,0,3-3V77a3,3,0,0,0-3-3Z" transform="translate(-7.98 -61.23)" style="fill: #c6ff00"/>
    <path d="M129.11,199.57a6.44,6.44,0,0,1-3.44-5.64V108.68a6.35,6.35,0,0,1,10-5.18l59.94,42.63a6.35,6.35,0,0,1,0,10.35L135.7,199.11A5.82,5.82,0,0,1,129.11,199.57ZM138.37,121v60.63L181,151.31Z" transform="translate(-7.98 -61.23)" style="fill: #c6ff00"/>
    <path d="M309.65,277.44H188.25a25.15,25.15,0,0,0-48.66,0H14.33a6.35,6.35,0,0,0,0,12.7H139.59a25.15,25.15,0,0,0,48.66,0h121.4a6.35,6.35,0,1,0,0-12.7ZM163.92,296.23a12.44,12.44,0,1,1,12.44-12.44A12.45,12.45,0,0,1,163.92,296.23Z" transform="translate(-7.98 -61.23)" style="fill: #c6ff00"/>
  </g>
</svg>
