<svg id="Camada_1" data-name="Camada 1" xmlns="http://www.w3.org/2000/svg" viewBox="0 0 512 115.9">
  <defs>
    <style>
      .cls-1 {
        fill: #fcfcfc;
      }
    </style>
  </defs>
  <path class="cls-1" d="M255.42,29C235.43,29,221,42,221,61.57s16.23,32.6,36.22,32.6c12.08,0,22.73-4.78,29.32-12.84l-13.85-8a20.74,20.74,0,0,1-15.47,6.33c-8.67,0-16-4.52-18.78-11.77H289.2a33.3,33.3,0,0,0,.63-6.33C289.83,42,275.41,29,255.42,29ZM238.29,55.23c2.26-7.22,8.46-11.77,17.11-11.77S270.27,48,272.52,55.23ZM450.43,29C430.43,29,416,42,416,61.57s16.22,32.6,36.22,32.6c12.08,0,22.73-4.78,29.32-12.84l-13.86-8a20.7,20.7,0,0,1-15.46,6.33c-8.68,0-16.05-4.52-18.78-11.77H484.2a32.5,32.5,0,0,0,.64-6.33C484.84,42,470.42,29,450.43,29ZM433.31,55.23c2.27-7.22,8.46-11.77,17.12-11.77S465.29,48,467.54,55.23Zm-70.68,6.34c0,10.87,7.1,18.11,18.11,18.11,7.46,0,13.06-3.38,15.94-8.91l13.91,8c-5.76,9.59-16.56,15.37-29.85,15.37-20,0-34.41-13-34.41-32.6S360.75,29,380.74,29c13.29,0,24.07,5.77,29.85,15.37l-13.91,8c-2.88-5.52-8.48-8.91-15.94-8.91C369.75,43.46,362.63,50.71,362.63,61.57ZM512,9.05V92.36H495.7V9.05ZM66.92,0l66.91,115.9H0ZM234.21,9.05,184,96,133.85,9.05h18.82L184,63.38,215.4,9.05ZM340.9,30.79V48.34a20.47,20.47,0,0,0-5.8-.89c-10.52,0-18.11,7.24-18.11,18.11v26.8h-16.3V30.79H317V47.45C317,38.25,327.7,30.79,340.9,30.79Z"/>
</svg>
